# xmcd
#
# Track frame offsets:
#   150
#   15012
#   29025
#   43849
#   54063
#   70580
#   86138
#   101822
#   114160
#   128952
#   144414
#   155954
#   172316
#   189730
#   205996
#   221065
#   236965
#   252663
#   268104
#   289654
#   305814
#   321937
#
# Disc length: 4485 seconds
#
# Revision: 0
# Processed by: cddbd v1.5.1PL0 Copyright (c) Steve Scherf et al.
# Submitted via: BirdCage ASPI Rip 3.0.1
#
DISCID=5a118316
DTITLE=Hansi Hinterseer - Hansi 2
DYEAR=2003
DGENRE=Blues
TTITLE0=1
TTITLE1=2
TTITLE2=3
TTITLE3=4
TTITLE4=5
TTITLE5=6
TTITLE6=7
TTITLE7=8
TTITLE8=9
TTITLE9=10
TTITLE10=11
TTITLE11=12
TTITLE12=13
TTITLE13=14
TTITLE14=15
TTITLE15=16
TTITLE16=17
TTITLE17=18
TTITLE18=19
TTITLE19=20
TTITLE20=21
TTITLE21=22
EXTD=
EXTT0=
EXTT1=
EXTT2=
EXTT3=
EXTT4=
EXTT5=
EXTT6=
EXTT7=
EXTT8=
EXTT9=
EXTT10=
EXTT11=
EXTT12=
EXTT13=
EXTT14=
EXTT15=
EXTT16=
EXTT17=
EXTT18=
EXTT19=
EXTT20=
EXTT21=
PLAYORDER=
